<svg width="94" height="94" viewBox="0 0 94 94" fill="none" xmlns="http://www.w3.org/2000/svg">
<rect width="94" height="94" rx="47" fill="url(#paint0_linear_67_195)" fill-opacity="0.05"/>
<rect x="12" y="12" width="70" height="70" rx="35" fill="url(#paint1_linear_67_195)" fill-opacity="0.1"/>
<rect x="12.5" y="12.5" width="69" height="69" rx="34.5" stroke="url(#paint2_linear_67_195)" stroke-opacity="0.2"/>
<path d="M58.0533 53.4311C57.6374 54.3919 57.1451 55.2763 56.5748 56.0893C55.7973 57.1978 55.1608 57.9651 54.6702 58.3911C53.9097 59.0905 53.095 59.4487 52.2225 59.469C51.5961 59.469 50.8407 59.2908 49.9614 58.9292C49.0792 58.5694 48.2685 58.3911 47.5272 58.3911C46.7498 58.3911 45.916 58.5694 45.0241 58.9292C44.1309 59.2908 43.4114 59.4792 42.8612 59.4979C42.0245 59.5335 41.1906 59.1652 40.3581 58.3911C39.8268 57.9277 39.1622 57.1333 38.3661 56.0079C37.512 54.8061 36.8097 53.4124 36.2596 51.8236C35.6704 50.1074 35.375 48.4456 35.375 46.8367C35.375 44.9938 35.7732 43.4043 36.5709 42.0722C37.1977 41.0023 38.0317 40.1583 39.0755 39.5388C40.1193 38.9192 41.2471 38.6034 42.4616 38.5832C43.1262 38.5832 43.9977 38.7888 45.0807 39.1928C46.1606 39.5982 46.854 39.8037 47.158 39.8037C47.3853 39.8037 48.1556 39.5634 49.4615 39.0842C50.6964 38.6398 51.7387 38.4558 52.5925 38.5282C54.9062 38.715 56.6444 39.627 57.8004 41.2702C55.7311 42.5239 54.7076 44.28 54.7279 46.5327C54.7466 48.2874 55.3832 49.7476 56.6342 50.9069C57.2011 51.445 57.8343 51.8609 58.5388 52.1563C58.386 52.5993 58.2247 53.0237 58.0533 53.4311ZM52.747 32.5504C52.747 33.9257 52.2445 35.2098 51.243 36.3984C50.0344 37.8114 48.5725 38.6279 46.9873 38.499C46.9671 38.3341 46.9554 38.1604 46.9554 37.9779C46.9554 36.6576 47.5301 35.2446 48.5508 34.0893C49.0604 33.5044 49.7085 33.018 50.4944 32.63C51.2787 32.2478 52.0205 32.0364 52.7181 32.0002C52.7385 32.1841 52.747 32.368 52.747 32.5504V32.5504Z" fill="#CAFF33"/>
<defs>
<linearGradient id="paint0_linear_67_195" x1="47" y1="0" x2="47" y2="94" gradientUnits="userSpaceOnUse">
<stop stop-color="#CAFF33"/>
<stop offset="1" stop-color="#CAFF33" stop-opacity="0"/>
</linearGradient>
<linearGradient id="paint1_linear_67_195" x1="47" y1="-34.3514" x2="47" y2="192.676" gradientUnits="userSpaceOnUse">
<stop stop-color="#CAFF33"/>
<stop offset="0.467671" stop-color="#CAFF33" stop-opacity="0"/>
</linearGradient>
<linearGradient id="paint2_linear_67_195" x1="47" y1="-109.554" x2="47" y2="145.378" gradientUnits="userSpaceOnUse">
<stop stop-color="#CAFF33"/>
<stop offset="0.716291" stop-color="#CAFF33" stop-opacity="0"/>
</linearGradient>
</defs>
</svg>
