<svg width="22" height="22" viewBox="0 0 22 22" fill="none" xmlns="http://www.w3.org/2000/svg">
<path fill-rule="evenodd" clip-rule="evenodd" d="M11.0238 21.3715C16.7037 21.3715 21.3083 16.7923 21.3083 11.1435C21.3083 5.49476 16.7037 0.915527 11.0238 0.915527C5.34379 0.915527 0.739258 5.49476 0.739258 11.1435C0.739258 16.7923 5.34379 21.3715 11.0238 21.3715Z" fill="#262626"/>
<path fill-rule="evenodd" clip-rule="evenodd" d="M10.1228 6.42285C10.6877 6.42285 11.2504 6.42285 11.8152 6.42285C11.782 6.80284 11.7467 7.18489 11.7156 7.56488C12.3738 7.61238 13.0155 7.82303 13.5928 8.13487C13.3436 8.75855 13.0923 9.38222 12.8411 10.0059C12.3551 9.59493 11.7156 9.36777 11.0781 9.37603C10.9182 9.38016 10.752 9.41114 10.6191 9.502C10.5319 9.56189 10.4675 9.65482 10.4489 9.75808C10.4343 9.84069 10.4385 9.93362 10.4842 10.008C10.5361 10.0906 10.6274 10.1401 10.7188 10.1711C10.9057 10.2372 11.1071 10.2413 11.3023 10.262C11.7613 10.3177 12.2222 10.3962 12.6563 10.5594C12.9927 10.6874 13.3145 10.8795 13.545 11.1603C13.7631 11.4185 13.8897 11.7448 13.9375 12.0793C13.9936 12.4655 13.977 12.8661 13.8565 13.242C13.7631 13.5435 13.6032 13.8244 13.3955 14.0619C12.9657 14.5575 12.3344 14.8549 11.6865 14.9313C11.7073 15.3381 11.7322 15.7429 11.755 16.1497C11.2193 16.1497 10.6856 16.1497 10.1519 16.1497C10.1727 15.747 10.1997 15.3443 10.2184 14.9416C9.78851 14.9272 9.36281 14.8322 8.96203 14.6814C8.57372 14.5348 8.20409 14.3407 7.85938 14.1135C8.11272 13.465 8.36606 12.8166 8.62148 12.1661C8.91012 12.4077 9.21745 12.6328 9.55386 12.8042C9.91518 12.988 10.316 13.1057 10.723 13.1098C10.9161 13.1119 11.1154 13.1016 11.2982 13.0355C11.4103 12.9942 11.5204 12.9219 11.5702 12.8083C11.6221 12.6885 11.618 12.5378 11.5391 12.4304C11.483 12.3581 11.4041 12.3086 11.321 12.2734C11.2089 12.228 11.0926 12.2032 10.9742 12.1846C10.5382 12.1144 10.1 12.0566 9.67845 11.9203C9.33997 11.8108 9.00979 11.658 8.73984 11.4226C8.56956 11.276 8.42836 11.0963 8.32868 10.8939C8.17917 10.5924 8.1231 10.2517 8.12725 9.9171C8.12725 9.54331 8.20409 9.16332 8.39098 8.83496C8.55295 8.5417 8.80006 8.30215 9.07832 8.11835C9.41473 7.89737 9.79059 7.74662 10.1727 7.62477C10.1561 7.22413 10.1394 6.82349 10.1228 6.42285Z" fill="#CAFF33"/>
</svg>
