<svg width="22" height="22" viewBox="0 0 22 22" fill="none" xmlns="http://www.w3.org/2000/svg">
<path d="M21.2667 11.1438C21.2667 16.7628 16.6865 21.3179 11.0365 21.3179C5.38639 21.3179 0.806152 16.7628 0.806152 11.1438C0.806152 5.5248 5.38639 0.969727 11.0365 0.969727C16.6864 0.969727 21.2667 5.5248 21.2667 11.1438Z" fill="#262626"/>
<g opacity="0.8">
<path d="M11.0024 6.42334L10.9392 6.63693V12.8349L11.0024 12.8977L13.8953 11.1971L11.0024 6.42334Z" fill="#CAFF33"/>
<path d="M11.0031 6.42334L8.11011 11.1971L11.0031 12.8977V9.88937V6.42334Z" fill="#CAFF33"/>
<path d="M11.0031 13.8335L10.9675 13.8767V16.0846L11.0031 16.188L13.8978 12.1338L11.0031 13.8335Z" fill="#CAFF33"/>
<path d="M11.0031 16.188V13.8335L8.11011 12.1338L11.0031 16.188Z" fill="#CAFF33"/>
<path d="M11.0029 12.8974L13.8958 11.1969L11.0029 9.88916V12.8974Z" fill="#CAFF33"/>
<path d="M8.11011 11.1969L11.003 12.8975V9.88916L8.11011 11.1969Z" fill="#CAFF33"/>
</g>
</svg>
