<svg width="112" height="45" viewBox="0 0 112 45" fill="none" xmlns="http://www.w3.org/2000/svg">
<rect x="0.279785" y="0.429688" width="111.238" height="43.9228" rx="6.15373" fill="#22251B"/>
<rect x="10.5359" y="11.126" width="22.5976" height="22.5298" rx="11.2649" fill="#CAFF33"/>
<path fill-rule="evenodd" clip-rule="evenodd" d="M21.8355 18.9395C22.0485 18.9395 22.2212 19.1112 22.2212 19.323V22.0079L24.9209 22.0079C25.1339 22.0079 25.3065 22.1796 25.3065 22.3914C25.3065 22.6032 25.1339 22.775 24.9209 22.775H22.2212V25.4598C22.2212 25.6716 22.0485 25.8433 21.8355 25.8433C21.6225 25.8433 21.4499 25.6716 21.4499 25.4598V22.7749H18.7502C18.5372 22.7749 18.3645 22.6032 18.3645 22.3914C18.3645 22.1796 18.5372 22.0079 18.7502 22.0079L21.4499 22.0079V19.323C21.4499 19.1112 21.6225 18.9395 21.8355 18.9395Z" fill="#1A1A1A"/>
<path d="M38.7232 17.2246V16.3015H43.8616V17.2246H38.7232ZM40.7437 19.204V14.2503H41.8206V19.204H40.7437ZM50.4163 19.7373C49.8283 19.7373 49.3086 19.6211 48.8573 19.3886C48.4129 19.1561 48.03 18.8074 47.7087 18.3425L48.4676 17.4707C48.8026 17.9493 49.124 18.2809 49.4317 18.4656C49.7394 18.6502 50.1052 18.7425 50.5291 18.7425C50.7889 18.7425 51.0248 18.7015 51.2368 18.6194C51.4488 18.5374 51.6163 18.4245 51.7393 18.2809C51.8624 18.1374 51.924 17.9733 51.924 17.7886C51.924 17.6656 51.9034 17.5493 51.8624 17.4399C51.8214 17.3305 51.7564 17.2314 51.6675 17.1425C51.5855 17.0536 51.4761 16.9716 51.3394 16.8964C51.2094 16.8211 51.0556 16.7562 50.8778 16.7015C50.7 16.64 50.4949 16.5887 50.2624 16.5476C49.7702 16.4519 49.3599 16.3083 49.0317 16.1169C48.7103 15.9254 48.4676 15.6827 48.3035 15.3887C48.1462 15.0947 48.0676 14.7528 48.0676 14.3631C48.0676 14.0759 48.1292 13.8092 48.2522 13.5631C48.3821 13.3169 48.5565 13.105 48.7753 12.9272C49.0009 12.7426 49.2642 12.6024 49.565 12.5067C49.8659 12.4041 50.1907 12.3529 50.5394 12.3529C51.0932 12.3529 51.5752 12.4623 51.9855 12.6811C52.4026 12.893 52.7308 13.2041 52.9701 13.6144L52.1906 14.3836C51.9855 14.0485 51.7393 13.7921 51.4522 13.6144C51.1718 13.4366 50.8573 13.3477 50.5086 13.3477C50.2419 13.3477 50.0095 13.3887 49.8112 13.4708C49.6129 13.5528 49.4556 13.6691 49.3394 13.8195C49.23 13.9631 49.1753 14.134 49.1753 14.3323C49.1753 14.4759 49.2026 14.6092 49.2573 14.7323C49.312 14.8485 49.3941 14.9545 49.5035 15.0502C49.6197 15.1391 49.7736 15.2212 49.965 15.2964C50.1565 15.3648 50.3855 15.4263 50.6522 15.481C51.0282 15.563 51.3633 15.669 51.6573 15.7989C51.9513 15.922 52.2009 16.069 52.406 16.24C52.6111 16.4109 52.765 16.6023 52.8675 16.8143C52.9769 17.0263 53.0316 17.2553 53.0316 17.5015C53.0316 17.9596 52.9256 18.3562 52.7137 18.6912C52.5017 19.0262 52.2009 19.2861 51.8111 19.4707C51.4214 19.6484 50.9565 19.7373 50.4163 19.7373ZM49.8009 20.5681V15.9118L50.7958 16.2502V20.5681H49.8009ZM51.206 16.2502L50.2112 15.9118V11.6144H51.206V16.2502ZM56.2318 19.7066C55.76 19.7066 55.3327 19.6006 54.9498 19.3886C54.5669 19.1698 54.2489 18.8587 53.996 18.4553L54.6113 17.7681C54.9327 18.1237 55.213 18.3664 55.4523 18.4963C55.6916 18.6262 55.9515 18.6912 56.2318 18.6912C56.5121 18.6912 56.7651 18.6297 56.9908 18.5066C57.2164 18.3835 57.3942 18.216 57.5241 18.004C57.6608 17.7921 57.7292 17.5562 57.7292 17.2963C57.7292 17.0229 57.6643 16.7801 57.5343 16.5682C57.4113 16.3494 57.2438 16.1784 57.0318 16.0553C56.8198 15.9254 56.5805 15.8605 56.3139 15.8605C56.1839 15.8605 56.0609 15.8707 55.9446 15.8912C55.8284 15.9049 55.6882 15.9425 55.5241 16.0041C55.36 16.0656 55.1446 16.1613 54.878 16.2912L54.2934 15.5015L54.7139 12.4554H58.5907V13.481H55.4113L55.6267 13.2862L55.2882 15.563L55.0318 15.2656C55.1002 15.1972 55.2164 15.1323 55.3805 15.0708C55.5446 15.0024 55.7258 14.9477 55.9241 14.9067C56.1292 14.8588 56.3241 14.8349 56.5087 14.8349C56.9463 14.8349 57.3361 14.9374 57.6779 15.1425C58.0266 15.3408 58.3001 15.6177 58.4984 15.9733C58.7036 16.3288 58.8061 16.7357 58.8061 17.1938C58.8061 17.6656 58.6933 18.0929 58.4677 18.4758C58.242 18.8519 57.9343 19.1527 57.5446 19.3784C57.1549 19.5972 56.7173 19.7066 56.2318 19.7066ZM62.5328 19.7373C61.9858 19.7373 61.514 19.5869 61.1174 19.2861C60.7277 18.9852 60.4269 18.5613 60.2149 18.0143C60.0029 17.4604 59.897 16.8041 59.897 16.0451C59.897 15.2861 60.0029 14.6332 60.2149 14.0862C60.4269 13.5323 60.7277 13.105 61.1174 12.8041C61.514 12.5033 61.9858 12.3529 62.5328 12.3529C63.0798 12.3529 63.5516 12.5033 63.9482 12.8041C64.3447 13.105 64.649 13.5323 64.861 14.0862C65.0729 14.6332 65.1789 15.2861 65.1789 16.0451C65.1789 16.8041 65.0729 17.4604 64.861 18.0143C64.649 18.5613 64.3447 18.9852 63.9482 19.2861C63.5516 19.5869 63.0798 19.7373 62.5328 19.7373ZM62.5328 18.7322C63.0319 18.7322 63.4183 18.4997 63.6918 18.0348C63.9653 17.563 64.102 16.8998 64.102 16.0451C64.102 15.1904 63.9653 14.5306 63.6918 14.0656C63.4183 13.5939 63.0319 13.358 62.5328 13.358C62.0337 13.358 61.6474 13.5939 61.3739 14.0656C61.1004 14.5306 60.9636 15.1904 60.9636 16.0451C60.9636 16.8998 61.1004 17.563 61.3739 18.0348C61.6474 18.4997 62.0337 18.7322 62.5328 18.7322ZM68.7627 19.7373C68.2157 19.7373 67.7439 19.5869 67.3473 19.2861C66.9576 18.9852 66.6567 18.5613 66.4447 18.0143C66.2328 17.4604 66.1268 16.8041 66.1268 16.0451C66.1268 15.2861 66.2328 14.6332 66.4447 14.0862C66.6567 13.5323 66.9576 13.105 67.3473 12.8041C67.7439 12.5033 68.2157 12.3529 68.7627 12.3529C69.3097 12.3529 69.7814 12.5033 70.178 12.8041C70.5746 13.105 70.8789 13.5323 71.0908 14.0862C71.3028 14.6332 71.4088 15.2861 71.4088 16.0451C71.4088 16.8041 71.3028 17.4604 71.0908 18.0143C70.8789 18.5613 70.5746 18.9852 70.178 19.2861C69.7814 19.5869 69.3097 19.7373 68.7627 19.7373ZM68.7627 18.7322C69.2618 18.7322 69.6481 18.4997 69.9216 18.0348C70.1951 17.563 70.3319 16.8998 70.3319 16.0451C70.3319 15.1904 70.1951 14.5306 69.9216 14.0656C69.6481 13.5939 69.2618 13.358 68.7627 13.358C68.2635 13.358 67.8772 13.5939 67.6037 14.0656C67.3302 14.5306 67.1935 15.1904 67.1935 16.0451C67.1935 16.8998 67.3302 17.563 67.6037 18.0348C67.8772 18.4997 68.2635 18.7322 68.7627 18.7322ZM74.9925 19.7373C74.4455 19.7373 73.9737 19.5869 73.5771 19.2861C73.1874 18.9852 72.8866 18.5613 72.6746 18.0143C72.4626 17.4604 72.3567 16.8041 72.3567 16.0451C72.3567 15.2861 72.4626 14.6332 72.6746 14.0862C72.8866 13.5323 73.1874 13.105 73.5771 12.8041C73.9737 12.5033 74.4455 12.3529 74.9925 12.3529C75.5395 12.3529 76.0113 12.5033 76.4079 12.8041C76.8044 13.105 77.1087 13.5323 77.3207 14.0862C77.5326 14.6332 77.6386 15.2861 77.6386 16.0451C77.6386 16.8041 77.5326 17.4604 77.3207 18.0143C77.1087 18.5613 76.8044 18.9852 76.4079 19.2861C76.0113 19.5869 75.5395 19.7373 74.9925 19.7373ZM74.9925 18.7322C75.4916 18.7322 75.878 18.4997 76.1515 18.0348C76.425 17.563 76.5617 16.8998 76.5617 16.0451C76.5617 15.1904 76.425 14.5306 76.1515 14.0656C75.878 13.5939 75.4916 13.358 74.9925 13.358C74.4934 13.358 74.107 13.5939 73.8335 14.0656C73.5601 14.5306 73.4233 15.1904 73.4233 16.0451C73.4233 16.8998 73.5601 17.563 73.8335 18.0348C74.107 18.4997 74.4934 18.7322 74.9925 18.7322ZM79.0173 21.4706L78.6275 20.9988C78.8668 20.8621 79.0617 20.7048 79.2121 20.5271C79.3626 20.3493 79.4378 20.1954 79.4378 20.0655C79.4378 19.9972 79.4207 19.9288 79.3865 19.8604C79.3523 19.7989 79.2805 19.71 79.1711 19.5937C79.0344 19.4638 78.9455 19.3544 78.9044 19.2655C78.8634 19.1767 78.8429 19.0809 78.8429 18.9784C78.8429 18.8143 78.901 18.6844 79.0173 18.5886C79.1335 18.4861 79.2839 18.4348 79.4685 18.4348C79.6395 18.4348 79.7933 18.4861 79.9301 18.5886C80.0737 18.6844 80.1831 18.8211 80.2583 18.9989C80.3403 19.1698 80.3813 19.3681 80.3813 19.5937C80.3813 19.7989 80.3472 19.9972 80.2788 20.1886C80.2104 20.3801 80.1147 20.5578 79.9916 20.7219C79.8685 20.886 79.7249 21.033 79.5608 21.1629C79.3967 21.2929 79.2155 21.3954 79.0173 21.4706ZM83.9567 19.7373C83.4097 19.7373 82.9379 19.5869 82.5413 19.2861C82.1516 18.9852 81.8507 18.5613 81.6388 18.0143C81.4268 17.4604 81.3208 16.8041 81.3208 16.0451C81.3208 15.2861 81.4268 14.6332 81.6388 14.0862C81.8507 13.5323 82.1516 13.105 82.5413 12.8041C82.9379 12.5033 83.4097 12.3529 83.9567 12.3529C84.5037 12.3529 84.9755 12.5033 85.372 12.8041C85.7686 13.105 86.0729 13.5323 86.2848 14.0862C86.4968 14.6332 86.6028 15.2861 86.6028 16.0451C86.6028 16.8041 86.4968 17.4604 86.2848 18.0143C86.0729 18.5613 85.7686 18.9852 85.372 19.2861C84.9755 19.5869 84.5037 19.7373 83.9567 19.7373ZM83.9567 18.7322C84.4558 18.7322 84.8421 18.4997 85.1156 18.0348C85.3891 17.563 85.5259 16.8998 85.5259 16.0451C85.5259 15.1904 85.3891 14.5306 85.1156 14.0656C84.8421 13.5939 84.4558 13.358 83.9567 13.358C83.4575 13.358 83.0712 13.5939 82.7977 14.0656C82.5242 14.5306 82.3875 15.1904 82.3875 16.0451C82.3875 16.8998 82.5242 17.563 82.7977 18.0348C83.0712 18.4997 83.4575 18.7322 83.9567 18.7322ZM90.1865 19.7373C89.6395 19.7373 89.1677 19.5869 88.7712 19.2861C88.3814 18.9852 88.0806 18.5613 87.8686 18.0143C87.6567 17.4604 87.5507 16.8041 87.5507 16.0451C87.5507 15.2861 87.6567 14.6332 87.8686 14.0862C88.0806 13.5323 88.3814 13.105 88.7712 12.8041C89.1677 12.5033 89.6395 12.3529 90.1865 12.3529C90.7335 12.3529 91.2053 12.5033 91.6019 12.8041C91.9984 13.105 92.3027 13.5323 92.5147 14.0862C92.7266 14.6332 92.8326 15.2861 92.8326 16.0451C92.8326 16.8041 92.7266 17.4604 92.5147 18.0143C92.3027 18.5613 91.9984 18.9852 91.6019 19.2861C91.2053 19.5869 90.7335 19.7373 90.1865 19.7373ZM90.1865 18.7322C90.6857 18.7322 91.072 18.4997 91.3455 18.0348C91.619 17.563 91.7557 16.8998 91.7557 16.0451C91.7557 15.1904 91.619 14.5306 91.3455 14.0656C91.072 13.5939 90.6857 13.358 90.1865 13.358C89.6874 13.358 89.3011 13.5939 89.0276 14.0656C88.7541 14.5306 88.6173 15.1904 88.6173 16.0451C88.6173 16.8998 88.7541 17.563 89.0276 18.0348C89.3011 18.4997 89.6874 18.7322 90.1865 18.7322Z" fill="white"/>
<path d="M39.1068 33.1475V27.404H39.7304L41.9375 30.9896L41.6422 30.9813L43.8739 27.404H44.4565V33.1475H43.8165V30.5219C43.8165 30.0296 43.8247 29.5865 43.8411 29.1927C43.8575 28.7988 43.8876 28.4077 43.9314 28.0194L44.0462 28.2491L41.9868 31.4819H41.5437L39.5417 28.2901L39.6319 28.0194C39.6757 28.3858 39.7058 28.7633 39.7222 29.1516C39.7386 29.5345 39.7468 29.9913 39.7468 30.5219V33.1475H39.1068ZM47.7992 33.2295C47.3725 33.2295 46.9923 33.1338 46.6587 32.9423C46.3305 32.7509 46.0706 32.4856 45.8792 32.1465C45.6932 31.8073 45.6002 31.4217 45.6002 30.9896C45.6002 30.5629 45.6932 30.1827 45.8792 29.8491C46.0706 29.5154 46.3305 29.2528 46.6587 29.0614C46.9923 28.8699 47.3725 28.7742 47.7992 28.7742C48.2204 28.7742 48.595 28.8699 48.9232 29.0614C49.2569 29.2528 49.5167 29.5154 49.7027 29.8491C49.8942 30.1827 49.9899 30.5629 49.9899 30.9896C49.9899 31.4217 49.8942 31.8073 49.7027 32.1465C49.5167 32.4856 49.2569 32.7509 48.9232 32.9423C48.595 33.1338 48.2204 33.2295 47.7992 33.2295ZM47.7992 32.647C48.1 32.647 48.368 32.5758 48.6033 32.4336C48.8385 32.2859 49.0217 32.089 49.153 31.8429C49.2843 31.5913 49.3499 31.3068 49.3499 30.9896C49.3499 30.6723 49.2843 30.3906 49.153 30.1444C49.0217 29.8983 48.8385 29.7068 48.6033 29.5701C48.368 29.4279 48.1 29.3568 47.7992 29.3568C47.4983 29.3568 47.2276 29.4279 46.9869 29.5701C46.7517 29.7068 46.5657 29.901 46.4289 30.1526C46.2977 30.3988 46.2347 30.6778 46.2402 30.9896C46.2347 31.3068 46.2977 31.5913 46.4289 31.8429C46.5657 32.089 46.7517 32.2859 46.9869 32.4336C47.2276 32.5758 47.4983 32.647 47.7992 32.647ZM50.8877 33.1475V28.8645H51.4949L51.5195 29.7588L51.421 29.7998C51.4757 29.6139 51.5824 29.4443 51.741 29.2911C51.8996 29.138 52.0884 29.0149 52.3072 28.9219C52.5314 28.8234 52.7612 28.7742 52.9964 28.7742C53.3136 28.7742 53.5789 28.8371 53.7923 28.9629C54.0056 29.0887 54.1669 29.2829 54.2763 29.5455C54.3857 29.808 54.4404 30.1417 54.4404 30.5465V33.1475H53.8169V30.5793C53.8169 30.2949 53.7786 30.0624 53.702 29.8819C53.6309 29.6959 53.5188 29.5592 53.3656 29.4716C53.2124 29.3841 53.0237 29.3431 52.7995 29.3486C52.6135 29.3486 52.4412 29.3814 52.2825 29.447C52.1239 29.5072 51.9872 29.592 51.8723 29.7014C51.7574 29.8108 51.6672 29.9366 51.6015 30.0788C51.5359 30.221 51.5031 30.3742 51.5031 30.5383V33.1475H51.1995C51.1612 33.1475 51.1174 33.1475 51.0682 33.1475C51.019 33.1475 50.9588 33.1475 50.8877 33.1475ZM56.2059 33.1475V27.7404H56.8213V33.1475H56.2059ZM55.2377 29.4552V28.8645H57.9044V29.4552H55.2377ZM58.66 33.1475V27.0758H59.2754V29.7998L59.1523 29.9229C59.2124 29.6986 59.3246 29.5017 59.4887 29.3321C59.6528 29.1571 59.8442 29.0204 60.063 28.9219C60.2873 28.8234 60.5143 28.7742 60.744 28.7742C61.0722 28.7742 61.3457 28.8371 61.5645 28.9629C61.7833 29.0887 61.9447 29.2829 62.0486 29.5455C62.158 29.808 62.2127 30.1417 62.2127 30.5465V33.1475H61.5892V30.5793C61.5892 30.2949 61.5509 30.0624 61.4743 29.8819C61.4032 29.6959 61.291 29.5592 61.1379 29.4716C60.9847 29.3841 60.7933 29.3431 60.5635 29.3486C60.383 29.3486 60.2135 29.3814 60.0548 29.447C59.8962 29.5072 59.7594 29.592 59.6446 29.7014C59.5297 29.8108 59.4395 29.9366 59.3738 30.0788C59.3082 30.221 59.2754 30.3742 59.2754 30.5383V33.1475H58.9718C58.9335 33.1475 58.8897 33.1475 58.8405 33.1475C58.7913 33.1475 58.7311 33.1475 58.66 33.1475ZM63.4039 33.1475V27.0758H64.0192V33.1475H63.4039ZM65.8322 35.0346L66.6609 33.0162L66.7184 33.5987L64.5686 28.8645H65.2661L66.7348 32.1465C66.7785 32.234 66.8223 32.3379 66.866 32.4582C66.9098 32.5731 66.9508 32.688 66.9891 32.8029L66.7594 32.7782C66.7977 32.6852 66.8332 32.5895 66.866 32.4911C66.9043 32.3926 66.9399 32.2969 66.9727 32.2039L68.2609 28.8645H68.9665L67.2353 33.1475L66.4968 35.0346H65.8322ZM71.8883 33.1475V32.5403H72.8155V28.0111H71.8883V27.404H74.3826V28.0111H73.4555V32.5403H74.3826V33.1475H71.8883ZM75.5587 33.1475V28.8645H76.1659L76.1905 29.7588L76.092 29.7998C76.1467 29.6139 76.2534 29.4443 76.412 29.2911C76.5706 29.138 76.7594 29.0149 76.9782 28.9219C77.2024 28.8234 77.4322 28.7742 77.6674 28.7742C77.9846 28.7742 78.2499 28.8371 78.4633 28.9629C78.6766 29.0887 78.8379 29.2829 78.9473 29.5455C79.0567 29.808 79.1114 30.1417 79.1114 30.5465V33.1475H78.4879V30.5793C78.4879 30.2949 78.4496 30.0624 78.373 29.8819C78.3019 29.6959 78.1898 29.5592 78.0366 29.4716C77.8834 29.3841 77.6947 29.3431 77.4705 29.3486C77.2845 29.3486 77.1122 29.3814 76.9535 29.447C76.7949 29.5072 76.6582 29.592 76.5433 29.7014C76.4284 29.8108 76.3382 29.9366 76.2725 30.0788C76.2069 30.221 76.1741 30.3742 76.1741 30.5383V33.1475H75.8705C75.8322 33.1475 75.7884 33.1475 75.7392 33.1475C75.69 33.1475 75.6298 33.1475 75.5587 33.1475ZM82.0913 33.2295C81.6865 33.2295 81.3255 33.1338 81.0082 32.9423C80.6909 32.7454 80.4393 32.4801 80.2533 32.1465C80.0728 31.8073 79.9826 31.4244 79.9826 30.9978C79.9826 30.5711 80.0728 30.1909 80.2533 29.8573C80.4393 29.5181 80.6909 29.2528 81.0082 29.0614C81.3255 28.8699 81.6892 28.7742 82.0995 28.7742C82.466 28.7742 82.7996 28.8481 83.1005 28.9957C83.4013 29.138 83.642 29.3376 83.8225 29.5947L83.4615 30.0378C83.3576 29.901 83.2317 29.7807 83.0841 29.6768C82.9418 29.5728 82.7859 29.4935 82.6164 29.4388C82.4523 29.3786 82.2882 29.3486 82.1241 29.3486C81.8342 29.3486 81.5743 29.4224 81.3446 29.5701C81.1149 29.7123 80.9316 29.9065 80.7949 30.1526C80.6636 30.3988 80.598 30.6805 80.598 30.9978C80.598 31.315 80.6636 31.5995 80.7949 31.8511C80.9316 32.0972 81.1149 32.2914 81.3446 32.4336C81.5743 32.5758 81.8314 32.647 82.1159 32.647C82.28 32.647 82.4413 32.6223 82.6 32.5731C82.7586 32.5184 82.909 32.4418 83.0512 32.3434C83.1935 32.2449 83.3247 32.1218 83.4451 31.9742L83.8061 32.4172C83.6201 32.6634 83.3712 32.8603 83.0594 33.008C82.7477 33.1557 82.4249 33.2295 82.0913 33.2295ZM86.5003 33.2295C86.0737 33.2295 85.6935 33.1338 85.3599 32.9423C85.0317 32.7509 84.7718 32.4856 84.5804 32.1465C84.3944 31.8073 84.3014 31.4217 84.3014 30.9896C84.3014 30.5629 84.3944 30.1827 84.5804 29.8491C84.7718 29.5154 85.0317 29.2528 85.3599 29.0614C85.6935 28.8699 86.0737 28.7742 86.5003 28.7742C86.9215 28.7742 87.2962 28.8699 87.6244 29.0614C87.9581 29.2528 88.2179 29.5154 88.4039 29.8491C88.5953 30.1827 88.6911 30.5629 88.6911 30.9896C88.6911 31.4217 88.5953 31.8073 88.4039 32.1465C88.2179 32.4856 87.9581 32.7509 87.6244 32.9423C87.2962 33.1338 86.9215 33.2295 86.5003 33.2295ZM86.5003 32.647C86.8012 32.647 87.0692 32.5758 87.3044 32.4336C87.5396 32.2859 87.7229 32.089 87.8542 31.8429C87.9854 31.5913 88.0511 31.3068 88.0511 30.9896C88.0511 30.6723 87.9854 30.3906 87.8542 30.1444C87.7229 29.8983 87.5396 29.7068 87.3044 29.5701C87.0692 29.4279 86.8012 29.3568 86.5003 29.3568C86.1995 29.3568 85.9287 29.4279 85.6881 29.5701C85.4528 29.7068 85.2669 29.901 85.1301 30.1526C84.9988 30.3988 84.9359 30.6778 84.9414 30.9896C84.9359 31.3068 84.9988 31.5913 85.1301 31.8429C85.2669 32.089 85.4528 32.2859 85.6881 32.4336C85.9287 32.5758 86.1995 32.647 86.5003 32.647ZM89.5807 33.1475V28.8645H90.196L90.2125 29.8409L90.0894 29.8819C90.1331 29.7178 90.2042 29.5701 90.3027 29.4388C90.4066 29.3021 90.5297 29.1845 90.6719 29.086C90.8141 28.9875 90.97 28.9137 91.1396 28.8645C91.3092 28.8098 91.487 28.7824 91.6729 28.7824C91.8972 28.7824 92.0969 28.8207 92.2719 28.8973C92.4524 28.9684 92.6028 29.0942 92.7232 29.2747C92.849 29.4498 92.9447 29.6822 93.0103 29.9721L92.8627 29.8983L92.9201 29.7588C92.9748 29.633 93.0541 29.5127 93.158 29.3978C93.2674 29.2774 93.3905 29.1708 93.5273 29.0778C93.6695 28.9848 93.8226 28.9137 93.9867 28.8645C94.1563 28.8098 94.3286 28.7824 94.5037 28.7824C94.8045 28.7824 95.0589 28.8481 95.2667 28.9793C95.4746 29.1051 95.6305 29.2993 95.7344 29.5619C95.8438 29.8244 95.8985 30.1581 95.8985 30.5629V33.1475H95.2667V30.5957C95.2667 30.3113 95.2312 30.0788 95.16 29.8983C95.0889 29.7178 94.9823 29.5838 94.8401 29.4962C94.7033 29.4033 94.5283 29.3568 94.3149 29.3568C94.129 29.3568 93.9567 29.3896 93.798 29.4552C93.6449 29.5154 93.5108 29.6029 93.396 29.7178C93.2866 29.8272 93.1991 29.953 93.1334 30.0952C93.0733 30.2374 93.0432 30.3906 93.0432 30.5547V33.1475H92.4196V30.5875C92.4196 30.314 92.3813 30.087 92.3047 29.9065C92.2336 29.726 92.1269 29.5892 91.9847 29.4962C91.8425 29.4033 91.6675 29.3568 91.4596 29.3568C91.2791 29.3568 91.1123 29.3896 90.9591 29.4552C90.8059 29.5154 90.6719 29.6002 90.5571 29.7096C90.4477 29.819 90.3601 29.9448 90.2945 30.087C90.2343 30.2292 90.2042 30.3824 90.2042 30.5465V33.1475H89.5807ZM98.9518 33.2295C98.5252 33.2295 98.145 33.1365 97.8113 32.9505C97.4831 32.7646 97.2261 32.5047 97.0401 32.1711C96.8541 31.8374 96.7611 31.4545 96.7611 31.0224C96.7611 30.6887 96.8131 30.3879 96.917 30.1198C97.0209 29.8463 97.1659 29.6084 97.3519 29.406C97.5433 29.2036 97.7703 29.0477 98.0329 28.9383C98.2954 28.8234 98.5799 28.766 98.8862 28.766C99.1761 28.766 99.4387 28.818 99.6739 28.9219C99.9146 29.0258 100.12 29.1708 100.289 29.3568C100.464 29.5373 100.596 29.7533 100.683 30.005C100.771 30.2566 100.809 30.5328 100.798 30.8337L100.79 31.1208H97.2206L97.1303 30.6039H100.322L100.174 30.7434V30.5465C100.163 30.3496 100.106 30.1609 100.002 29.9803C99.8981 29.7944 99.7505 29.6439 99.559 29.5291C99.373 29.4142 99.1488 29.3568 98.8862 29.3568C98.5799 29.3568 98.3146 29.4197 98.0903 29.5455C97.866 29.6658 97.6937 29.8463 97.5734 30.087C97.4531 30.3277 97.3929 30.6258 97.3929 30.9813C97.3929 31.3205 97.4585 31.6159 97.5898 31.8675C97.7211 32.1136 97.9071 32.3051 98.1477 32.4418C98.3939 32.5786 98.6893 32.647 99.0339 32.647C99.2363 32.647 99.4359 32.6141 99.6328 32.5485C99.8352 32.4774 100.057 32.3406 100.297 32.1382L100.617 32.5813C100.492 32.7071 100.341 32.8193 100.166 32.9177C99.9911 33.0107 99.7997 33.0873 99.5918 33.1475C99.384 33.2022 99.1706 33.2295 98.9518 33.2295Z" fill="#E4E4E7"/>
</svg>
