<svg width="14" height="18" viewBox="0 0 14 18" fill="none" xmlns="http://www.w3.org/2000/svg">
<path fill-rule="evenodd" clip-rule="evenodd" d="M6.61646 17.1259C6.64163 17.1405 6.66141 17.1517 6.67542 17.1596L6.69869 17.1726C6.88441 17.2745 7.1148 17.2738 7.3007 17.1729L7.32458 17.1596C7.33859 17.1517 7.35837 17.1405 7.38354 17.1259C7.43388 17.0967 7.50581 17.0542 7.59625 16.9985C7.77705 16.8872 8.03229 16.723 8.33718 16.5076C8.94591 16.0776 9.75812 15.4395 10.5721 14.6061C12.1922 12.9474 13.875 10.4551 13.875 7.25C13.875 3.45304 10.797 0.375 7 0.375C3.20304 0.375 0.125 3.45304 0.125 7.25C0.125 10.4551 1.80777 12.9474 3.42788 14.6061C4.24188 15.4395 5.05409 16.0776 5.66282 16.5076C5.96771 16.723 6.22295 16.8872 6.40375 16.9985C6.49419 17.0542 6.56612 17.0967 6.61646 17.1259ZM7 9.75C8.38071 9.75 9.5 8.63071 9.5 7.25C9.5 5.86929 8.38071 4.75 7 4.75C5.61929 4.75 4.5 5.86929 4.5 7.25C4.5 8.63071 5.61929 9.75 7 9.75Z" fill="#CAFF33"/>
</svg>
