<svg width="156" height="41" viewBox="0 0 156 41" fill="none" xmlns="http://www.w3.org/2000/svg">
<path d="M10.0002 20.0002L20.0002 10.0002L30.0002 20.0002L20.0002 30.0002L10.0002 20.0002Z" fill="#CAFF33" style="fill:#CAFF33;fill:color(display-p3 0.7940 1.0000 0.2000);fill-opacity:1;"/>
<path d="M36.6668 13.3335L30.0002 20.0002V10.0002H20.0002L26.6668 3.3335H36.6668V13.3335Z" fill="#CAFF33" style="fill:#CAFF33;fill:color(display-p3 0.7940 1.0000 0.2000);fill-opacity:1;"/>
<path d="M36.6668 26.6668L30.0002 20.0002V30.0002H20.0002L26.6668 36.6668H36.6668V26.6668Z" fill="#CAFF33" style="fill:#CAFF33;fill:color(display-p3 0.7940 1.0000 0.2000);fill-opacity:1;"/>
<path d="M3.3335 26.6668L10.0002 20.0002V30.0002H20.0002L13.3335 36.6668H3.3335L3.3335 26.6668Z" fill="#CAFF33" style="fill:#CAFF33;fill:color(display-p3 0.7940 1.0000 0.2000);fill-opacity:1;"/>
<path d="M3.3335 13.3335L10.0002 20.0002V10.0002H20.0002L13.3335 3.3335H3.3335L3.3335 13.3335Z" fill="#CAFF33" style="fill:#CAFF33;fill:color(display-p3 0.7940 1.0000 0.2000);fill-opacity:1;"/>
<path d="M59.3537 11.3335L53.2085 22.1844V29.3326H50.3122V22.1844L44.167 11.3335H47.4663L51.7729 19.3045L56.0544 11.3335H59.3537Z" fill="white" style="fill:white;fill-opacity:1;"/>
<path d="M64.5084 29.6668C62.6615 29.6668 61.0916 29.0154 59.7987 27.7126C58.5059 26.4099 57.8595 24.8071 57.8595 22.9043C57.8595 21.0016 58.5059 19.3988 59.7987 18.096C61.0916 16.7932 62.6615 16.1418 64.5084 16.1418C66.3721 16.1418 67.942 16.7932 69.218 18.096C70.5108 19.3988 71.1573 21.0016 71.1573 22.9043C71.1573 24.8071 70.5108 26.4099 69.218 27.7126C67.942 29.0154 66.3721 29.6668 64.5084 29.6668ZM61.7128 25.8099C62.4684 26.5813 63.4002 26.967 64.5084 26.967C65.6165 26.967 66.5484 26.5813 67.3039 25.8099C68.0595 25.0385 68.4373 24.07 68.4373 22.9043C68.4373 21.7387 68.0595 20.7701 67.3039 19.9988C66.5484 19.2274 65.6165 18.8417 64.5084 18.8417C63.4002 18.8417 62.4684 19.2274 61.7128 19.9988C60.9573 20.7701 60.5795 21.7387 60.5795 22.9043C60.5795 24.07 60.9573 25.0385 61.7128 25.8099Z" fill="white" style="fill:white;fill-opacity:1;"/>
<path d="M82.1042 16.4761H84.8242V29.3326H82.1042V27.6869C81.2815 29.0069 79.9802 29.6668 78.2005 29.6668C76.7565 29.6668 75.5896 29.1954 74.6997 28.2526C73.8098 27.3098 73.3649 26.0156 73.3649 24.37V16.4761H76.0849V24.0871C76.0849 25.0471 76.3368 25.7842 76.8405 26.2984C77.3442 26.8127 78.0326 27.0698 78.9057 27.0698C79.8627 27.0698 80.635 26.7698 81.2227 26.1699C81.8103 25.5528 82.1042 24.6185 82.1042 23.3672V16.4761Z" fill="white" style="fill:white;fill-opacity:1;"/>
<path d="M90.7248 18.636C91.4132 17.0418 92.706 16.2447 94.6033 16.2447V19.2531C93.5623 19.1845 92.6557 19.4416 91.8833 20.0245C91.111 20.5902 90.7248 21.533 90.7248 22.8529V29.3326H88.0048V16.4761H90.7248V18.636Z" fill="white" style="fill:white;fill-opacity:1;"/>
<path d="M107.166 19.9988C107.938 20.4102 108.542 20.9759 108.979 21.6958C109.415 22.4158 109.634 23.2472 109.634 24.19C109.634 25.6642 109.122 26.8898 108.097 27.8669C107.073 28.844 105.822 29.3326 104.345 29.3326H96.7893V11.3335H103.791C105.235 11.3335 106.452 11.8135 107.443 12.7734C108.45 13.7162 108.954 14.899 108.954 16.3218C108.954 17.8817 108.358 19.1074 107.166 19.9988ZM103.791 14.1105H99.6856V18.8417H103.791C104.429 18.8417 104.966 18.6188 105.403 18.1731C105.839 17.7103 106.057 17.1446 106.057 16.4761C106.057 15.8075 105.839 15.2504 105.403 14.8047C104.966 14.3419 104.429 14.1105 103.791 14.1105ZM104.345 26.5556C105.016 26.5556 105.579 26.3156 106.032 25.8356C106.502 25.3385 106.737 24.7385 106.737 24.0357C106.737 23.3329 106.502 22.7415 106.032 22.2615C105.579 21.7644 105.016 21.5158 104.345 21.5158H99.6856V26.5556H104.345Z" fill="white" style="fill:white;fill-opacity:1;"/>
<path d="M122.081 16.4761H124.801V29.3326H122.081V27.4812C121.057 28.9383 119.588 29.6668 117.674 29.6668C115.944 29.6668 114.467 29.0154 113.241 27.7126C112.015 26.3927 111.403 24.7899 111.403 22.9043C111.403 21.0016 112.015 19.3988 113.241 18.096C114.467 16.7932 115.944 16.1418 117.674 16.1418C119.588 16.1418 121.057 16.8618 122.081 18.3017V16.4761ZM115.256 25.8613C116.012 26.6327 116.96 27.0184 118.102 27.0184C119.244 27.0184 120.192 26.6327 120.948 25.8613C121.703 25.0728 122.081 24.0871 122.081 22.9043C122.081 21.7215 121.703 20.7444 120.948 19.973C120.192 19.1845 119.244 18.7903 118.102 18.7903C116.96 18.7903 116.012 19.1845 115.256 19.973C114.5 20.7444 114.123 21.7215 114.123 22.9043C114.123 24.0871 114.5 25.0728 115.256 25.8613Z" fill="white" style="fill:white;fill-opacity:1;"/>
<path d="M134.595 16.1418C136.039 16.1418 137.206 16.6132 138.096 17.556C138.986 18.4988 139.431 19.7931 139.431 21.4387V29.3326H136.711V21.7215C136.711 20.7616 136.459 20.0245 135.955 19.5102C135.452 18.996 134.763 18.7388 133.89 18.7388C132.933 18.7388 132.161 19.0474 131.573 19.6645C130.985 20.2645 130.692 21.1901 130.692 22.4415V29.3326H127.972V16.4761H130.692V18.1217C131.514 16.8018 132.815 16.1418 134.595 16.1418Z" fill="white" style="fill:white;fill-opacity:1;"/>
<path d="M155.834 29.3326H152.383L145.432 20.7702V29.3326H142.536V11.3335H145.432V19.4074L152.131 11.3335H155.582L148.454 20.1016L155.834 29.3326Z" fill="white" style="fill:white;fill-opacity:1;"/>
</svg>
