<svg width="21" height="22" viewBox="0 0 21 22" fill="none" xmlns="http://www.w3.org/2000/svg">
<path d="M20.9227 11.1443C20.9227 16.7633 16.3425 21.3184 10.6925 21.3184C5.0424 21.3184 0.462158 16.7633 0.462158 11.1443C0.462158 5.52529 5.0424 0.970215 10.6925 0.970215C16.3424 0.970215 20.9227 5.52529 20.9227 11.1443Z" fill="#262626"/>
<path d="M13.5668 15.3947L13.3307 14.3287C13.3173 14.266 13.2836 14.219 13.2296 14.1879C13.1711 14.1565 13.1127 14.1522 13.0543 14.1745L13.0206 14.1879L12.9396 14.208C12.9035 14.2168 12.862 14.2269 12.8148 14.2381C12.7676 14.2493 12.7126 14.2604 12.6496 14.2716C12.5869 14.2828 12.5203 14.2929 12.4508 14.3018C12.3811 14.3106 12.306 14.3186 12.225 14.3253C12.144 14.3319 12.0632 14.3353 11.9822 14.3353C11.4113 14.3353 10.8977 14.1822 10.4416 13.876C9.98532 13.5697 9.64932 13.1551 9.43359 12.6322H12.0428C12.0923 12.6322 12.1372 12.6155 12.1776 12.5819C12.2182 12.5484 12.2429 12.5071 12.2517 12.4578L12.4135 11.7068C12.4271 11.6399 12.4135 11.5795 12.3732 11.5258C12.3282 11.4721 12.2719 11.4452 12.2046 11.4452H9.11001C9.09653 11.1413 9.09653 10.9066 9.11001 10.7412H12.4002C12.5217 10.7412 12.5935 10.6831 12.616 10.5669L12.7778 9.80248C12.7912 9.73992 12.7757 9.68186 12.7306 9.62817C12.6903 9.57453 12.6341 9.54759 12.5622 9.54759H9.40669C9.63144 9.04695 9.96853 8.65359 10.4181 8.36749C10.8676 8.08131 11.3755 7.93831 11.9418 7.93831C11.9599 7.92938 12.0261 7.93164 12.1406 7.94503C12.2553 7.95837 12.3206 7.964 12.3362 7.96175C12.3517 7.95954 12.4104 7.96628 12.5114 7.98183C12.6126 7.99747 12.6632 8.00531 12.6632 8.00531L12.7812 8.02875C12.815 8.03552 12.8408 8.04101 12.8588 8.04554L12.8858 8.05221C12.9441 8.07018 12.9979 8.06454 13.0476 8.03552C13.0971 8.00637 13.1286 7.96285 13.1421 7.90475L13.432 6.83862C13.4454 6.78049 13.4386 6.72685 13.4118 6.67769C13.3713 6.62396 13.3263 6.59045 13.2769 6.57708C12.8634 6.47429 12.4272 6.42285 11.9688 6.42285C10.9618 6.42285 10.0619 6.70902 9.26847 7.28113C8.47511 7.85329 7.92783 8.60882 7.62666 9.54752H6.96597C6.90301 9.54752 6.85137 9.5676 6.81089 9.60783C6.77053 9.64802 6.75024 9.69945 6.75024 9.76206V10.5265C6.75024 10.589 6.77046 10.6405 6.81089 10.6806C6.85139 10.7209 6.90311 10.7409 6.96597 10.7409H7.41773C7.40415 10.9556 7.40201 11.1901 7.41093 11.445H6.96597C6.90755 11.445 6.85699 11.4662 6.81429 11.5087C6.77162 11.5512 6.75024 11.6015 6.75024 11.6595V12.4172C6.75024 12.4754 6.77162 12.5256 6.81429 12.5682C6.85701 12.6106 6.90755 12.6317 6.96597 12.6317H7.60652C7.88969 13.6196 8.42462 14.4053 9.21123 14.9886C9.99788 15.5721 10.9171 15.8637 11.9688 15.8637C12.0543 15.8637 12.1408 15.8616 12.2285 15.857C12.3163 15.8525 12.3982 15.8457 12.4746 15.8369C12.551 15.828 12.6263 15.8181 12.7005 15.8068C12.7746 15.7956 12.8421 15.7846 12.9027 15.7732C12.9634 15.7621 13.0207 15.751 13.0746 15.7399C13.1286 15.7286 13.1769 15.7164 13.2197 15.7029C13.2624 15.6897 13.2982 15.6795 13.3275 15.6729C13.3567 15.6662 13.3803 15.6582 13.3982 15.6495L13.432 15.6427C13.4815 15.6249 13.5197 15.5924 13.5466 15.5454C13.5736 15.4987 13.5802 15.4484 13.5668 15.3947Z" fill="#CAFF33"/>
</svg>
