<svg width="64" height="64" viewBox="0 0 64 64" fill="none" xmlns="http://www.w3.org/2000/svg">
<rect width="64" height="64" rx="32" fill="url(#paint0_linear_108_4614)" fill-opacity="0.05"/>
<rect x="8" y="8" width="48" height="48" rx="24" fill="url(#paint1_linear_108_4614)" fill-opacity="0.1"/>
<rect x="8.5" y="8.5" width="47" height="47" rx="23.5" stroke="url(#paint2_linear_108_4614)" stroke-opacity="0.2"/>
<g clip-path="url(#clip0_108_4614)">
<path d="M34.154 25.5027C34.1804 25.5335 34.1848 25.5423 34.1892 25.5423C34.6247 25.6039 34.827 25.9294 35.0602 26.255C35.3285 26.6245 35.6496 26.9632 35.9928 27.2711C36.8946 28.085 37.4489 29.0704 37.6336 30.2713C37.9547 32.374 36.7494 34.534 34.7698 35.3742C31.7653 36.6499 28.4088 34.7099 28.0613 31.4634C27.8765 29.7346 28.51 28.3049 29.8297 27.1788C30.2564 26.8136 30.6127 26.3913 30.9075 25.9118C30.9602 25.8238 31.057 25.7535 31.1494 25.7095C31.299 25.6391 31.4661 25.5995 31.6553 25.5335C31.5937 25.4587 31.5497 25.4059 31.5013 25.3531C31.2066 25.0496 30.9119 24.7373 30.6127 24.4425C30.5071 24.337 30.4588 24.227 30.4632 24.0774C30.472 23.4528 30.4676 22.8325 30.4676 22.2078C30.4676 21.9571 30.7755 21.5568 31.0262 21.5084C31.3122 21.4512 31.6069 21.4204 31.8928 21.3632C31.9764 21.3456 32.0688 21.2928 32.1172 21.2268C32.5351 20.6638 33.2698 20.6594 33.6833 21.218C33.7405 21.2928 33.8504 21.35 33.9428 21.372C34.2068 21.4292 34.4751 21.46 34.7434 21.5084C35.0118 21.5612 35.2977 21.9087 35.2977 22.1814C35.2977 22.8105 35.2933 23.444 35.3021 24.073C35.3065 24.2358 35.2537 24.3458 35.1437 24.4601C34.8094 24.7989 34.4883 25.1464 34.154 25.5027ZM32.3064 27.953C32.2932 28.0058 32.28 28.0366 32.2844 28.063C32.3416 28.3577 32.2052 28.4853 31.9324 28.5953C31.4133 28.8108 31.1802 29.2463 31.1934 29.805C31.2066 30.3593 31.5057 30.7024 32.0072 30.8828C32.2272 30.9619 32.4559 31.0191 32.6759 31.0939C32.8782 31.1599 33.0806 31.2259 33.2742 31.3051C33.4369 31.3711 33.5293 31.4986 33.5117 31.6834C33.4941 31.8726 33.3753 31.9825 33.2082 32.0133C33.0366 32.0485 32.8518 32.0793 32.6891 32.0397C32.3723 31.9649 32.0688 31.8374 31.7345 31.723C31.5849 31.9209 31.4133 32.1453 31.2066 32.4224C31.5189 32.5588 31.7873 32.6996 32.0732 32.7964C32.236 32.8491 32.302 32.9195 32.28 33.0867C32.2668 33.2055 32.2756 33.3286 32.2756 33.465C32.5263 33.465 32.7375 33.465 32.9486 33.465C33.2522 33.465 33.2654 33.465 33.2478 33.1527C33.239 32.9591 33.2829 32.8535 33.4941 32.8271C33.6041 32.8139 33.7141 32.7524 33.8152 32.6952C34.2815 32.44 34.4751 32.0309 34.4663 31.5118C34.4575 31.0191 34.2111 30.6804 33.7712 30.4824C33.5733 30.3945 33.3621 30.3285 33.151 30.2581C32.887 30.1701 32.6231 30.0909 32.3591 29.9942C32.1964 29.9326 32.1304 29.8006 32.1436 29.6246C32.1568 29.4575 32.258 29.3431 32.4119 29.3167C32.5967 29.2859 32.7947 29.2683 32.975 29.2991C33.195 29.3387 33.4017 29.4399 33.6349 29.5191C33.78 29.2947 33.9296 29.0572 34.1056 28.78C33.9032 28.6876 33.7317 28.5733 33.5469 28.5425C33.2873 28.4985 33.2082 28.3797 33.239 28.1334C33.2478 28.0762 33.1686 27.9618 33.1202 27.9574C32.8562 27.9442 32.5791 27.953 32.3064 27.953Z" fill="#CAFF33"/>
<path d="M32.5435 43.1914C31.6065 43.1914 30.6651 43.1651 29.7281 43.2002C29.0991 43.2222 28.5624 43.0331 28.0565 42.6988C27.3394 42.2193 26.684 41.6738 26.1121 41.0227C25.2675 40.0593 24.4141 39.0959 23.5694 38.1325C22.8788 37.3407 23.1911 36.1706 24.1765 35.8494C24.2909 35.8098 24.4229 35.7966 24.5416 35.7966C25.3247 35.7922 26.1121 35.7878 26.8951 35.801C27.0051 35.801 27.1371 35.8582 27.2163 35.933C27.7529 36.4521 28.2808 36.9844 28.8043 37.5167C28.9099 37.6222 29.0067 37.6442 29.1562 37.6222C29.473 37.5739 29.7985 37.5299 30.1196 37.5299C31.6021 37.5211 33.0802 37.5255 34.5627 37.5255C35.0686 37.5255 35.4425 37.785 35.5745 38.2161C35.7768 38.8672 35.3017 39.4786 34.5759 39.483C33.5949 39.4874 32.6095 39.483 31.6285 39.483C31.4526 39.483 31.2766 39.4786 31.1006 39.483C30.7839 39.4918 30.5771 39.6942 30.5727 39.9801C30.5727 40.2705 30.7795 40.4904 31.0918 40.4904C32.6535 40.4948 34.2152 40.4948 35.7768 40.4904C36.0936 40.4904 36.3223 40.3145 36.5423 40.1033C37.5628 39.1223 38.5834 38.1413 39.6084 37.1647C40.0263 36.7644 40.5806 36.7468 40.9765 37.1032C41.4032 37.4903 41.412 38.1149 40.9809 38.5504C40.5278 39.0123 40.0659 39.4479 39.6084 39.8922C38.5966 40.8731 37.5848 41.8497 36.5775 42.8307C36.3311 43.0683 36.0584 43.1914 35.7108 43.1914C34.6551 43.1871 33.5993 43.1914 32.5435 43.1914Z" fill="#CAFF33"/>
<path d="M27.3089 24.6011C27.7356 25.0278 28.1623 25.4545 28.5802 25.8724C28.3207 26.1319 28.0479 26.4047 27.7752 26.673C27.3705 26.2551 26.9438 25.8152 26.5347 25.3929C26.7766 25.1466 27.0494 24.865 27.3089 24.6011Z" fill="#CAFF33"/>
<path d="M38.4164 24.6011C38.6759 24.8606 38.9443 25.1378 39.195 25.3885C38.7771 25.8064 38.3416 26.2419 37.9193 26.6598C37.6641 26.4047 37.3958 26.1275 37.1274 25.8592C37.5454 25.4501 37.9765 25.0278 38.4164 24.6011Z" fill="#CAFF33"/>
<path d="M39.4283 31.5339C39.4283 31.16 39.4239 30.8169 39.4327 30.4738C39.4327 30.4298 39.5163 30.3506 39.5603 30.3506C40.097 30.3418 40.6293 30.3418 41.166 30.3506C41.21 30.3506 41.2935 30.4166 41.2935 30.4518C41.3023 30.8081 41.2979 31.1644 41.2979 31.5339C40.6689 31.5339 40.0618 31.5339 39.4283 31.5339Z" fill="#CAFF33"/>
<path d="M26.2832 31.5471C25.6761 31.5471 25.1086 31.5515 24.5368 31.5427C24.4928 31.5427 24.4224 31.4592 24.418 31.4108C24.4092 31.1028 24.4048 30.7949 24.418 30.487C24.418 30.4386 24.506 30.3506 24.5544 30.3506C25.0823 30.3418 25.6101 30.3418 26.138 30.3506C26.1864 30.3506 26.2744 30.421 26.2744 30.465C26.2876 30.8081 26.2832 31.16 26.2832 31.5471Z" fill="#CAFF33"/>
</g>
<defs>
<linearGradient id="paint0_linear_108_4614" x1="32" y1="0" x2="32" y2="64" gradientUnits="userSpaceOnUse">
<stop stop-color="#CAFF33"/>
<stop offset="1" stop-color="#CAFF33" stop-opacity="0"/>
</linearGradient>
<linearGradient id="paint1_linear_108_4614" x1="32" y1="-23.7838" x2="32" y2="131.892" gradientUnits="userSpaceOnUse">
<stop stop-color="#CAFF33"/>
<stop offset="0.467671" stop-color="#CAFF33" stop-opacity="0"/>
</linearGradient>
<linearGradient id="paint2_linear_108_4614" x1="32" y1="-75.3514" x2="32" y2="99.4595" gradientUnits="userSpaceOnUse">
<stop stop-color="#CAFF33"/>
<stop offset="0.716291" stop-color="#CAFF33" stop-opacity="0"/>
</linearGradient>
<clipPath id="clip0_108_4614">
<rect width="18.1021" height="22.4" fill="white" transform="translate(23.2 20.8)"/>
</clipPath>
</defs>
</svg>
