<svg width="64" height="64" viewBox="0 0 64 64" fill="none" xmlns="http://www.w3.org/2000/svg">
<rect width="64" height="64" rx="32" fill="url(#paint0_linear_108_4627)" fill-opacity="0.05"/>
<rect x="8" y="8" width="48" height="48" rx="24" fill="url(#paint1_linear_108_4627)" fill-opacity="0.1"/>
<rect x="8.5" y="8.5" width="47" height="47" rx="23.5" stroke="url(#paint2_linear_108_4627)" stroke-opacity="0.2"/>
<g clip-path="url(#clip0_108_4627)">
<path d="M39.726 31.2148C39.726 31.8131 39.734 32.4075 39.722 33.0057C39.714 33.3285 39.8063 33.6119 39.9749 33.8795C40.4085 34.5802 40.9827 35.1666 41.5648 35.7452C41.7816 35.9617 42.0064 36.1664 42.2353 36.3671C42.3477 36.4655 42.3999 36.5679 42.3999 36.7214C42.3919 37.3787 42.3919 38.0321 42.3959 38.6894C42.3999 39.2365 42.159 39.6458 41.6572 39.8741C41.1432 40.1064 40.6615 40.008 40.2399 39.6498C39.3687 38.9019 38.5015 38.1501 37.6343 37.4023C37.0441 36.8906 36.4579 36.3711 35.8557 35.8751C35.6429 35.698 35.3899 35.5681 35.145 35.4343C34.7837 35.2375 34.3943 35.1312 33.9727 35.1469C33.6676 35.1588 33.3544 35.1627 33.0493 35.1391C32.6036 35.1037 32.2864 34.8006 32.2262 34.3834C32.17 34.0173 32.3908 33.6237 32.7602 33.482C32.9007 33.4269 33.0573 33.4033 33.2099 33.4033C34.3661 33.3954 35.5224 33.3993 36.6827 33.3993C37.1163 33.3993 37.2729 33.2458 37.2729 32.8168C37.2729 31.9509 37.2689 31.085 37.2729 30.219C37.2769 29.8884 37.1605 29.6286 36.9076 29.4043C35.4502 28.1211 34.0008 26.8301 32.5474 25.5391C32.158 25.1927 32.1138 24.681 32.439 24.3071C32.7602 23.9332 33.2861 23.8977 33.6997 24.2126C35.5586 25.6296 37.4134 27.0466 39.2803 28.4557C39.5895 28.6879 39.734 28.9713 39.73 29.3452C39.722 29.9671 39.726 30.589 39.726 31.2148Z" fill="#CAFF33"/>
<path d="M20.804 37.7645C20.804 37.4103 20.808 37.056 20.8 36.7018C20.796 36.564 20.8522 36.4735 20.9445 36.379C21.5508 35.7689 22.149 35.151 22.7432 34.5291C22.8677 34.3992 22.96 34.2457 23.0684 34.104C23.3535 33.7222 23.486 33.305 23.4739 32.8169C23.4498 31.6912 23.4779 30.5616 23.4619 29.4319C23.4538 28.9871 23.6144 28.6723 23.9798 28.3967C25.8347 27.0112 27.6694 25.6021 29.5123 24.197C29.8977 23.9018 30.4277 23.949 30.7408 24.3032C31.062 24.6654 31.0339 25.1849 30.6605 25.5234C30.0944 26.0351 29.5203 26.535 28.9502 27.0427C28.0468 27.8417 27.1435 28.6447 26.2402 29.4437C26.0274 29.6326 25.923 29.8609 25.923 30.1365C25.923 31.0536 25.919 31.9707 25.923 32.8917C25.923 33.2302 26.0996 33.3955 26.4489 33.3955C27.6413 33.3994 28.8297 33.3955 30.0222 33.3994C30.5842 33.3994 30.9777 33.7852 30.9657 34.3047C30.9576 34.7023 30.6645 35.0604 30.259 35.1195C30.0181 35.1549 29.7652 35.1707 29.5203 35.147C28.6973 35.0683 28.0027 35.3635 27.3884 35.8437C26.7621 36.3318 26.1759 36.875 25.5777 37.3906C24.6984 38.1463 23.8232 38.9099 22.9399 39.6617C22.2253 40.2718 21.1694 40.0041 20.8642 39.1342C20.8241 39.024 20.8121 38.902 20.808 38.7879C20.8 38.4494 20.804 38.1069 20.804 37.7645Z" fill="#CAFF33"/>
<path d="M32.1704 32.0297C32.1704 32.2187 32.1704 32.3958 32.1704 32.5887C31.8331 32.5887 31.5119 32.5887 31.1627 32.5887C31.1627 32.4351 31.1586 32.2856 31.1627 32.136C31.1667 32.0258 31.1345 31.9786 31.0181 31.951C30.6849 31.8723 30.3757 31.7385 30.0867 31.5102C30.2713 31.2701 30.448 31.0418 30.6086 30.8292C30.9137 30.9434 31.1908 31.0772 31.4838 31.1441C31.6966 31.1914 31.9335 31.1599 32.1543 31.1244C32.3229 31.0969 32.4313 30.967 32.4434 30.7899C32.4595 30.6088 32.3631 30.4829 32.2025 30.4199C31.9295 30.3176 31.6444 30.2388 31.3674 30.1483C31.1667 30.0814 30.9579 30.0224 30.7612 29.9397C30.2995 29.7468 30.0545 29.4044 30.0425 28.9006C30.0305 28.3732 30.2312 27.9481 30.713 27.7198C31.0261 27.5702 31.2951 27.46 31.1386 27.0231C31.4798 27.0231 31.7769 27.0192 32.078 27.031C32.1102 27.031 32.1664 27.1294 32.1664 27.1845C32.1864 27.519 32.1864 27.5112 32.5036 27.6214C32.6883 27.6843 32.865 27.7749 33.0657 27.8654C32.8971 28.1212 32.7606 28.3456 32.608 28.5581C32.5839 28.5896 32.4876 28.5857 32.4314 28.57C32.1664 28.503 31.9094 28.4164 31.6444 28.3653C31.54 28.3456 31.4196 28.3771 31.3112 28.4046C31.1506 28.4479 31.0422 28.5542 31.0302 28.7274C31.0181 28.8966 31.0944 29.0265 31.251 29.0895C31.4557 29.1722 31.6645 29.2351 31.8733 29.3021C32.1021 29.3768 32.339 29.4319 32.5598 29.5146C33.1982 29.7586 33.4551 30.1444 33.423 30.7781C33.3909 31.3606 33.0256 31.7936 32.4233 31.9628C32.3511 31.9864 32.2748 32.0061 32.1704 32.0297Z" fill="#CAFF33"/>
</g>
<defs>
<linearGradient id="paint0_linear_108_4627" x1="32" y1="0" x2="32" y2="64" gradientUnits="userSpaceOnUse">
<stop stop-color="#CAFF33"/>
<stop offset="1" stop-color="#CAFF33" stop-opacity="0"/>
</linearGradient>
<linearGradient id="paint1_linear_108_4627" x1="32" y1="-23.7838" x2="32" y2="131.892" gradientUnits="userSpaceOnUse">
<stop stop-color="#CAFF33"/>
<stop offset="0.467671" stop-color="#CAFF33" stop-opacity="0"/>
</linearGradient>
<linearGradient id="paint2_linear_108_4627" x1="32" y1="-75.3514" x2="32" y2="99.4595" gradientUnits="userSpaceOnUse">
<stop stop-color="#CAFF33"/>
<stop offset="0.716291" stop-color="#CAFF33" stop-opacity="0"/>
</linearGradient>
<clipPath id="clip0_108_4627">
<rect width="21.6" height="16" fill="white" transform="translate(20.8 24)"/>
</clipPath>
</defs>
</svg>
