<svg width="98" height="98" viewBox="0 0 98 98" fill="none" xmlns="http://www.w3.org/2000/svg">
<rect width="98" height="98" rx="49" fill="url(#paint0_linear_64_2077)" fill-opacity="0.05"/>
<rect x="12" y="12" width="74" height="74" rx="37" fill="url(#paint1_linear_64_2077)" fill-opacity="0.1"/>
<rect x="12.5" y="12.5" width="73" height="73" rx="36.5" stroke="url(#paint2_linear_64_2077)" stroke-opacity="0.2"/>
<path fill-rule="evenodd" clip-rule="evenodd" d="M49 35.1875C41.3716 35.1875 35.1875 41.3716 35.1875 49C35.1875 56.6284 41.3716 62.8125 49 62.8125C56.6284 62.8125 62.8125 56.6284 62.8125 49C62.8125 41.3716 56.6284 35.1875 49 35.1875ZM44.75 42.625C44.1632 42.625 43.6875 43.1007 43.6875 43.6875C43.6875 44.2743 44.1632 44.75 44.75 44.75H46.875C48.2629 44.75 49.4435 45.637 49.8811 46.875H44.75C44.1632 46.875 43.6875 47.3507 43.6875 47.9375C43.6875 48.5243 44.1632 49 44.75 49H49.8811C49.4435 50.238 48.2629 51.125 46.875 51.125H44.75C44.3203 51.125 43.9328 51.3839 43.7684 51.7809C43.6039 52.1779 43.6948 52.6349 43.9987 52.9388L48.2487 57.1888C48.6636 57.6037 49.3364 57.6037 49.7513 57.1888C50.1662 56.7739 50.1662 56.1011 49.7513 55.6862L47.2985 53.2334C49.6779 53.0457 51.6163 51.2904 52.0812 49H53.25C53.8368 49 54.3125 48.5243 54.3125 47.9375C54.3125 47.3507 53.8368 46.875 53.25 46.875H52.0812C51.9219 46.0899 51.5894 45.3677 51.1254 44.75H53.25C53.8368 44.75 54.3125 44.2743 54.3125 43.6875C54.3125 43.1007 53.8368 42.625 53.25 42.625H44.75Z" fill="#CAFF33"/>
<defs>
<linearGradient id="paint0_linear_64_2077" x1="49" y1="0" x2="49" y2="98" gradientUnits="userSpaceOnUse">
<stop stop-color="#CAFF33"/>
<stop offset="1" stop-color="#CAFF33" stop-opacity="0"/>
</linearGradient>
<linearGradient id="paint1_linear_64_2077" x1="49" y1="-37" x2="49" y2="203" gradientUnits="userSpaceOnUse">
<stop stop-color="#CAFF33"/>
<stop offset="0.467671" stop-color="#CAFF33" stop-opacity="0"/>
</linearGradient>
<linearGradient id="paint2_linear_64_2077" x1="49" y1="-116.5" x2="49" y2="153" gradientUnits="userSpaceOnUse">
<stop stop-color="#CAFF33"/>
<stop offset="0.716291" stop-color="#CAFF33" stop-opacity="0"/>
</linearGradient>
</defs>
</svg>
