<svg width="98" height="98" viewBox="0 0 98 98" fill="none" xmlns="http://www.w3.org/2000/svg">
<rect width="98" height="98" rx="49" fill="url(#paint0_linear_64_2066)" fill-opacity="0.05"/>
<rect x="12" y="12" width="74" height="74" rx="37" fill="url(#paint1_linear_64_2066)" fill-opacity="0.1"/>
<rect x="12.5" y="12.5" width="73" height="73" rx="36.5" stroke="url(#paint2_linear_64_2066)" stroke-opacity="0.2"/>
<path fill-rule="evenodd" clip-rule="evenodd" d="M44.75 38.375C45.2244 38.375 45.6413 38.6895 45.7716 39.1456L46.9236 43.1777C47.4279 44.9426 48.8074 46.3221 50.5723 46.8264L54.6044 47.9784C55.0605 48.1087 55.375 48.5256 55.375 49C55.375 49.4744 55.0605 49.8913 54.6044 50.0216L50.5723 51.1736C48.8074 51.6779 47.4279 53.0574 46.9236 54.8223L45.7716 58.8544C45.6413 59.3105 45.2244 59.625 44.75 59.625C44.2756 59.625 43.8587 59.3105 43.7284 58.8544L42.5764 54.8223C42.0721 53.0574 40.6926 51.6779 38.9277 51.1736L34.8956 50.0216C34.4395 49.8913 34.125 49.4744 34.125 49C34.125 48.5256 34.4395 48.1087 34.8956 47.9784L38.9277 46.8264C40.6926 46.3221 42.0721 44.9426 42.5764 43.1777L43.7284 39.1456C43.8587 38.6895 44.2756 38.375 44.75 38.375Z" fill="#CAFF33"/>
<path fill-rule="evenodd" clip-rule="evenodd" d="M57.5 34.125C57.9875 34.125 58.4125 34.4568 58.5308 34.9298L58.8975 36.3967C59.2306 37.7291 60.2709 38.7694 61.6033 39.1025L63.0702 39.4692C63.5432 39.5875 63.875 40.0125 63.875 40.5C63.875 40.9875 63.5432 41.4125 63.0702 41.5308L61.6033 41.8975C60.2709 42.2306 59.2306 43.2709 58.8975 44.6033L58.5308 46.0702C58.4125 46.5432 57.9875 46.875 57.5 46.875C57.0125 46.875 56.5875 46.5432 56.4692 46.0702L56.1025 44.6033C55.7694 43.2709 54.7291 42.2306 53.3967 41.8975L51.9298 41.5308C51.4568 41.4125 51.125 40.9875 51.125 40.5C51.125 40.0125 51.4568 39.5875 51.9298 39.4692L53.3967 39.1025C54.7291 38.7694 55.7694 37.7291 56.1025 36.3967L56.4692 34.9298C56.5875 34.4568 57.0125 34.125 57.5 34.125Z" fill="#CAFF33"/>
<path fill-rule="evenodd" clip-rule="evenodd" d="M55.375 53.25C55.8323 53.25 56.2384 53.5426 56.383 53.9765L56.9415 55.652C57.153 56.2866 57.6509 56.7845 58.2855 56.996L59.961 57.5545C60.3949 57.6991 60.6875 58.1052 60.6875 58.5625C60.6875 59.0198 60.3949 59.4259 59.961 59.5705L58.2855 60.129C57.6509 60.3405 57.153 60.8384 56.9415 61.473L56.383 63.1485C56.2384 63.5824 55.8323 63.875 55.375 63.875C54.9177 63.875 54.5116 63.5824 54.367 63.1485L53.8085 61.473C53.597 60.8384 53.0991 60.3405 52.4645 60.129L50.789 59.5705C50.3551 59.4259 50.0625 59.0198 50.0625 58.5625C50.0625 58.1052 50.3551 57.6991 50.789 57.5545L52.4645 56.996C53.0991 56.7845 53.597 56.2866 53.8085 55.652L54.367 53.9765C54.5116 53.5426 54.9177 53.25 55.375 53.25Z" fill="#CAFF33"/>
<defs>
<linearGradient id="paint0_linear_64_2066" x1="49" y1="0" x2="49" y2="98" gradientUnits="userSpaceOnUse">
<stop stop-color="#CAFF33"/>
<stop offset="1" stop-color="#CAFF33" stop-opacity="0"/>
</linearGradient>
<linearGradient id="paint1_linear_64_2066" x1="49" y1="-37" x2="49" y2="203" gradientUnits="userSpaceOnUse">
<stop stop-color="#CAFF33"/>
<stop offset="0.467671" stop-color="#CAFF33" stop-opacity="0"/>
</linearGradient>
<linearGradient id="paint2_linear_64_2066" x1="49" y1="-116.5" x2="49" y2="153" gradientUnits="userSpaceOnUse">
<stop stop-color="#CAFF33"/>
<stop offset="0.716291" stop-color="#CAFF33" stop-opacity="0"/>
</linearGradient>
</defs>
</svg>
