<svg width="20" height="20" viewBox="0 0 20 20" fill="none" xmlns="http://www.w3.org/2000/svg">
<path d="M8.75214 12.4596C8.19059 12.4596 7.86166 12.1435 7.86166 11.5762V10.9198C5.50313 10.7577 3.15262 10.2714 0.713867 9.33941V8.00224C3.71417 9.33132 6.72251 9.80138 9.99558 9.80138C13.2767 9.80138 16.285 9.33132 19.2853 8.00224V9.33941C16.8465 10.2714 14.496 10.7577 12.1375 10.9198V11.5762C12.1375 12.1435 11.8086 12.4596 11.247 12.4596H8.75214ZM3.19273 17.8489H16.8064C18.467 17.8489 19.2853 17.0386 19.2853 15.3771V7.49167C19.2853 5.83028 18.467 5.01985 16.8064 5.01985H3.19273C1.54015 5.01985 0.713867 5.83028 0.713867 7.49167V15.3771C0.713867 17.0386 1.54015 17.8489 3.19273 17.8489ZM5.92831 5.72493H7.17175V4.29047C7.17175 3.67453 7.53275 3.32605 8.15848 3.32605H11.8407C12.4664 3.32605 12.8194 3.67453 12.8194 4.29047V5.70872H14.0628V4.37962C14.0628 2.856 13.2686 2.14282 11.8166 2.14282H8.1745C6.80273 2.14282 5.92831 2.856 5.92831 4.37962V5.72493Z" fill="#B3B3B3"/>
</svg>
