<svg width="72" height="72" viewBox="0 0 72 72" fill="none" xmlns="http://www.w3.org/2000/svg">
<rect width="72" height="72" rx="36" fill="url(#paint0_linear_113_9626)" fill-opacity="0.05"/>
<rect x="8" y="8" width="56" height="56" rx="28" fill="url(#paint1_linear_113_9626)" fill-opacity="0.1"/>
<rect x="8.5" y="8.5" width="55" height="55" rx="27.5" stroke="url(#paint2_linear_113_9626)" stroke-opacity="0.2"/>
<path fill-rule="evenodd" clip-rule="evenodd" d="M25.5 33.8323V35.625C25.5 36.6605 26.3395 37.5 27.375 37.5H44.625C45.6605 37.5 46.5 36.6605 46.5 35.625V33.8323C46.5 33.1162 46.2438 32.4237 45.7778 31.88L42.4929 28.0476C41.923 27.3827 41.0909 27 40.2151 27H31.7849C30.9091 27 30.077 27.3827 29.5071 28.0476L26.2222 31.88C25.7562 32.4237 25.5 33.1162 25.5 33.8323ZM31.7849 28.5C31.347 28.5 30.9309 28.6913 30.646 29.0238L27.8807 32.25H31.0458C32.0489 32.25 32.9856 32.7513 33.542 33.5859L33.7061 33.8321C33.9843 34.2493 34.4526 34.5 34.9542 34.5H37.0458C37.5474 34.5 38.0157 34.2493 38.2939 33.8321L38.458 33.5859C39.0144 32.7513 39.9511 32.25 40.9542 32.25H44.1193L41.354 29.0238C41.0691 28.6913 40.653 28.5 40.2151 28.5H31.7849Z" fill="#CAFF33"/>
<path d="M26.8125 39C26.0876 39 25.5 39.5876 25.5 40.3125V42C25.5 43.6569 26.8431 45 28.5 45H43.5C45.1569 45 46.5 43.6569 46.5 42V40.3125C46.5 39.5876 45.9124 39 45.1875 39H40.9542C39.9511 39 39.0144 39.5013 38.458 40.3359L38.2939 40.5821C38.0157 40.9993 37.5474 41.25 37.0458 41.25H34.9542C34.4526 41.25 33.9843 40.9993 33.7061 40.5821L33.542 40.3359C32.9856 39.5013 32.0489 39 31.0458 39H26.8125Z" fill="#CAFF33"/>
<defs>
<linearGradient id="paint0_linear_113_9626" x1="36" y1="0" x2="36" y2="72" gradientUnits="userSpaceOnUse">
<stop stop-color="#CAFF33"/>
<stop offset="1" stop-color="#CAFF33" stop-opacity="0"/>
</linearGradient>
<linearGradient id="paint1_linear_113_9626" x1="36" y1="-29.0811" x2="36" y2="152.541" gradientUnits="userSpaceOnUse">
<stop stop-color="#CAFF33"/>
<stop offset="0.467671" stop-color="#CAFF33" stop-opacity="0"/>
</linearGradient>
<linearGradient id="paint2_linear_113_9626" x1="36" y1="-89.2432" x2="36" y2="114.703" gradientUnits="userSpaceOnUse">
<stop stop-color="#CAFF33"/>
<stop offset="0.716291" stop-color="#CAFF33" stop-opacity="0"/>
</linearGradient>
</defs>
</svg>
