<svg width="72" height="72" viewBox="0 0 72 72" fill="none" xmlns="http://www.w3.org/2000/svg">
<rect width="72" height="72" rx="36" fill="url(#paint0_linear_113_9607)" fill-opacity="0.05"/>
<rect x="8" y="8" width="56" height="56" rx="28" fill="url(#paint1_linear_113_9607)" fill-opacity="0.1"/>
<rect x="8.5" y="8.5" width="55" height="55" rx="27.5" stroke="url(#paint2_linear_113_9607)" stroke-opacity="0.2"/>
<path d="M36 24.75C31.4437 24.75 27.75 28.4437 27.75 33C27.75 36.0508 29.4063 38.7138 31.8652 40.1405C32.5506 40.5382 32.9799 41.1484 32.9993 41.7626C33.01 42.1013 33.2466 42.3908 33.5764 42.4687C33.9278 42.5518 34.2859 42.6171 34.6496 42.6639C34.9732 42.7055 35.2502 42.4462 35.2502 42.12V37.4589C34.9309 37.4236 34.618 37.366 34.3132 37.2875C33.9121 37.1843 33.6706 36.7754 33.7739 36.3743C33.8771 35.9731 34.286 35.7316 34.6871 35.8349C35.1059 35.9427 35.5458 36.0002 36.0002 36.0002C36.4546 36.0002 36.8944 35.9427 37.3132 35.8349C37.7144 35.7316 38.1233 35.9731 38.2265 36.3743C38.3298 36.7754 38.0883 37.1843 37.6871 37.2875C37.3823 37.366 37.0695 37.4236 36.7502 37.4589V42.1199C36.7502 42.4462 37.0272 42.7054 37.3508 42.6638C37.7144 42.6171 38.0723 42.5518 38.4236 42.4687C38.7534 42.3908 38.99 42.1013 39.0007 41.7626C39.0201 41.1484 39.4494 40.5382 40.1348 40.1405C42.5937 38.7138 44.25 36.0508 44.25 33C44.25 28.4437 40.5563 24.75 36 24.75Z" fill="#CAFF33"/>
<path fill-rule="evenodd" clip-rule="evenodd" d="M33.0131 43.8997C33.0903 43.4927 33.4828 43.2254 33.8898 43.3026C34.5727 43.4321 35.2781 43.5 36 43.5C36.7219 43.5 37.4273 43.4321 38.1102 43.3026C38.5172 43.2254 38.9097 43.4927 38.9869 43.8997C39.0641 44.3066 38.7967 44.6991 38.3898 44.7763C37.6151 44.9232 36.8162 45 36 45C35.1838 45 34.3849 44.9232 33.6102 44.7763C33.2033 44.6991 32.9359 44.3066 33.0131 43.8997Z" fill="#CAFF33"/>
<path fill-rule="evenodd" clip-rule="evenodd" d="M33.7541 46.344C33.7972 45.932 34.1661 45.633 34.578 45.6761C35.0451 45.7249 35.5195 45.75 36 45.75C36.4805 45.75 36.9549 45.7249 37.422 45.6761C37.8339 45.633 38.2028 45.932 38.2459 46.344C38.289 46.7559 37.99 47.1248 37.578 47.1679C37.0592 47.2222 36.5327 47.25 36 47.25C35.4673 47.25 34.9408 47.2222 34.422 47.1679C34.01 47.1248 33.711 46.7559 33.7541 46.344Z" fill="#CAFF33"/>
<defs>
<linearGradient id="paint0_linear_113_9607" x1="36" y1="0" x2="36" y2="72" gradientUnits="userSpaceOnUse">
<stop stop-color="#CAFF33"/>
<stop offset="1" stop-color="#CAFF33" stop-opacity="0"/>
</linearGradient>
<linearGradient id="paint1_linear_113_9607" x1="36" y1="-29.0811" x2="36" y2="152.541" gradientUnits="userSpaceOnUse">
<stop stop-color="#CAFF33"/>
<stop offset="0.467671" stop-color="#CAFF33" stop-opacity="0"/>
</linearGradient>
<linearGradient id="paint2_linear_113_9607" x1="36" y1="-89.2432" x2="36" y2="114.703" gradientUnits="userSpaceOnUse">
<stop stop-color="#CAFF33"/>
<stop offset="0.716291" stop-color="#CAFF33" stop-opacity="0"/>
</linearGradient>
</defs>
</svg>
